<?xml version="1.0" encoding="UTF-8" standalone="no"?>
<svg
   xmlns:dc="http://purl.org/dc/elements/1.1/"
   xmlns:cc="http://creativecommons.org/ns#"
   xmlns:rdf="http://www.w3.org/1999/02/22-rdf-syntax-ns#"
   xmlns:svg="http://www.w3.org/2000/svg"
   xmlns="http://www.w3.org/2000/svg"
   xmlns:sodipodi="http://sodipodi.sourceforge.net/DTD/sodipodi-0.dtd"
   xmlns:inkscape="http://www.inkscape.org/namespaces/inkscape"
   width="220"
   height="237"
   viewBox="0 0 220 237"
   fill="none"
   version="1.1"
   id="svg23"
   sodipodi:docname="check.svg"
   inkscape:version="0.92.5 (2060ec1f9f, 2020-04-08)">
  <metadata
     id="metadata27">
    <rdf:RDF>
      <cc:Work
         rdf:about="">
        <dc:format>image/svg+xml</dc:format>
        <dc:type
           rdf:resource="http://purl.org/dc/dcmitype/StillImage" />
      </cc:Work>
    </rdf:RDF>
  </metadata>
  <sodipodi:namedview
     pagecolor="#ffffff"
     bordercolor="#666666"
     borderopacity="1"
     objecttolerance="10"
     gridtolerance="10"
     guidetolerance="10"
     inkscape:pageopacity="0"
     inkscape:pageshadow="2"
     inkscape:window-width="1920"
     inkscape:window-height="1031"
     id="namedview25"
     showgrid="false"
     inkscape:zoom="1.9915612"
     inkscape:cx="165.76869"
     inkscape:cy="86.238731"
     inkscape:window-x="0"
     inkscape:window-y="25"
     inkscape:window-maximized="1"
     inkscape:current-layer="svg23" />
  <g
     id="g4"
     transform="matrix(0.31452336,0,0,0.31452336,70.266091,67.834808)"
     style="filter:url(#filter0_d)">
    <path
       d="m 46.192,222.672 c 0,-2.496 -0.48,-3.744 -1.44,-3.744 l -6.624,3.168 c 0,-1.344 -0.768,-2.304 -2.304,-2.88 l -2.304,-0.288 c -1.536,0 -3.456,0.672 -5.76,2.016 -0.384,-0.96 -0.864,-1.92 -1.44,-2.88 -0.576,-0.96 -1.056,-1.824 -1.44,-2.592 -2.496,-4.8 -4.992,-10.08 -7.488,-15.84 C 15.088,193.68 12.88,188.016 10.768,182.64 8.848,177.264 7.312,173.04 6.16,169.968 5.392,167.472 4.528,163.728 3.568,158.736 2.608,153.744 1.648,147.408 0.688001,139.728 2.8,141.072 4.432,141.744 5.584,141.744 c 1.344,0 2.592,-2.016 3.744,-6.048 0.576,0.768 1.632,1.152 3.168,1.152 1.152,0 2.016,-0.384 2.592,-1.152 l 4.608,-6.912 5.184,1.728 h 0.288 c 0.384,0 0.768,-0.192 1.152,-0.576 0.384,-0.384 0.96,-0.768 1.728,-1.152 1.536,-0.96 2.688,-1.44 3.456,-1.44 l 0.864,0.288 c 4.8,2.304 7.872,6.528 9.216,12.672 3.456,14.592 6.912,21.888 10.368,21.888 3.456,0 7.488,-3.648 12.096,-10.944 2.304,-3.648 4.608,-7.872 6.912,-12.672 2.496,-4.8 4.992,-10.176 7.488,-16.128 0.384,2.304 0.768,3.456 1.152,3.456 0.96,0 2.592,-2.4 4.896,-7.2 2.496,-4.8 6.432,-11.424 11.808,-19.872 3.072,-5.184 6.912,-11.04 11.52,-17.568 4.8,-6.528 9.888,-13.248 15.264,-20.16 5.376,-6.912 10.56,-13.44 15.552,-19.584 5.184,-6.144 9.792,-11.424 13.824,-15.84 4.032,-4.416 7.008,-7.296 8.928,-8.64 7.296,-4.992 13.056,-9.79201 17.28,-14.40001 -0.192,1.344 -0.48,2.592 -0.864,3.74401 -0.192,0.95999 -0.288,1.63199 -0.288,2.01599 0,0.768 0.384,1.152 1.152,1.152 l 8.064,-4.032 v 1.152 c 0,1.536 0.384,2.30401 1.152,2.30401 0.576,0 1.728,-0.864 3.456,-2.592 1.728,-1.72801 2.688,-2.97601 2.88,-3.74401 l -0.576,4.032 9.792,-5.759993 -2.304,5.184003 c 3.072,-2.11201 5.28,-3.16801 6.624,-3.16801 0.768,0 1.344,0.48 1.728,1.44 0.384,0.768 0.576,1.536 0.576,2.304 0,1.152 -0.48,2.496 -1.44,4.03201 -0.96,1.536 -2.208,3.36 -3.744,5.472 -1.152,1.536 -3.072,3.84 -5.76,6.912 -2.496,2.88 -6.336,7.2 -11.52,12.96 -5.184,5.568 -12.096,13.344 -20.736,23.328 -2.304,2.496 -5.856,6.912 -10.656,13.248 -4.8,6.144 -10.272,13.344 -16.416,21.6 -5.952,8.064 -11.904,16.224 -17.856,24.48 -5.952,8.256 -11.232,15.744 -15.84,22.464 -4.608,6.528 -7.872,11.424 -9.792,14.688 l -17.856,30.24 c -3.84,6.528 -7.008,11.904 -9.504,16.128 -2.496,4.032 -4.416,6.816 -5.76,8.352 -2.88,3.456 -6.048,6.528 -9.504,9.216 l -2.592,-1.44 -2.304,1.44 z"
       id="path2"
       inkscape:connector-curvature="0"
       style="fill:#000000" />
  </g>
  <defs
     id="defs21">
    <filter
       id="filter0_d"
       x="0.687988"
       y="0.911995"
       width="218.376"
       height="235.76"
       filterUnits="userSpaceOnUse"
       color-interpolation-filters="sRGB">
      <feFlood
         flood-opacity="0"
         result="BackgroundImageFix"
         id="feFlood6" />
      <feColorMatrix
         in="SourceAlpha"
         type="matrix"
         values="0 0 0 0 0 0 0 0 0 0 0 0 0 0 0 0 0 0 127 0"
         id="feColorMatrix8" />
      <feOffset
         dx="5"
         dy="10"
         id="feOffset10" />
      <feGaussianBlur
         stdDeviation="2"
         id="feGaussianBlur12" />
      <feColorMatrix
         type="matrix"
         values="0 0 0 0 0.956863 0 0 0 0 0.772549 0 0 0 0 0.113725 0 0 0 0.5 0"
         id="feColorMatrix14" />
      <feBlend
         mode="normal"
         in2="BackgroundImageFix"
         result="effect1_dropShadow"
         id="feBlend16" />
      <feBlend
         mode="normal"
         in="SourceGraphic"
         in2="effect1_dropShadow"
         result="shape"
         id="feBlend18" />
    </filter>
  </defs>
</svg>
